<svg xmlns="http://www.w3.org/2000/svg" fill="none" viewBox="0 0 742 165"><path fill="#08080A" fill-rule="evenodd" d="M2.3 103.1l1.1-24.6L2.8 50l.3-12-.8-18v-5.9c0-4.5 1.3-6.7 3.9-6.7H7c2.7 0 9.2 9 19.6 26.9a90 90 0 0 0 9 12.9h.3c2-3.1 5.5-11.7 10.4-25.7a89.4 89.4 0 0 1 5.3-12.6l1.1-.8h2.5c2.4 0 4.2.7 5.3 2A929.5 929.5 0 0 0 58.3 75v13c0 10.2.4 17.9 1.4 22.9v.3c0 2.4-.8 3.6-2.5 3.6H56c-3.4 0-5-4.3-5-12.9l-.6-27.4V61.3c0-10.2.3-20 .8-29.4A75.2 75.2 0 0 0 45.3 47c-1.1.8-2.4 4.6-3.9 11.5-1 1.7-2.2 2.5-3.9 2.5-2.9 0-5.8-3.4-8.7-10.4-3.1-4.5-7.9-12.2-14.3-22.9l-5-6.4c.6 12.7.8 27.4.8 43.9v32.5l.3 12.3c-.6 2.8-1.1 4.2-1.7 4.2H7.2c-2.8 0-4.2-1.3-4.2-3.9-.4-1.7-.7-4.1-.7-7.2zM90.5 56.9c10.6-1.5 16-2.6 16-3.1l.3-3.1c0-1.3-1.1-8-3.4-19.9 0-3.8-.6-7.3-1.7-10.6v-.6h-.3a639.5 639.5 0 0 1-10.9 37.3zm-19.6 54c0-7.7 3.5-23.5 10.6-47.6 0-1.9 2-8 6.2-18.5L98.6 9.3c0-.9.6-1.8 2-2.8h1.1c2.1 0 3.6 2.1 4.5 6.2 1.8 4 3.5 11.2 5 21.5a165 165 0 0 0 4.2 24.1l-.3 3.4a134 134 0 0 0 11.8 47.9l.6 3.9c0 .6-.8 1-2.5 1.4h-.6c-3.1 0-6.5-7.3-10.1-21.8a92.6 92.6 0 0 1-6.2-29.4v-2.8h-.3c-13.1 1.7-19.6 3.1-19.6 4.2-4.1 12-7.8 26.1-10.9 42.3-.8 3.6-1.8 5.3-2.8 5.3h-.8a3.4 3.4 0 0 1-2.8-1.8zM133.2 112.2v-1.1l.8-77.5-.8-13.4v-3.1c0-2.6 1.1-3.9 3.4-3.9h.6c2.3 0 4.5 4.1 6.4 12.3 4.3 10.8 8.8 25.3 13.7 43.4 3.1 9.9 6.3 18.3 9.5 25.2h.3v-.6c0-7.8 1.3-32.9 3.9-75.3.6-2.9 1.4-4.9 2.5-5.9h1.4c1 0 2.2.5 3.9 1.4-2.8 40-4.2 67.6-4.2 82.8l.6 16.5c0 3.9-1.1 5.9-3.1 5.9h-.3c-3.8 0-7.4-6.2-10.6-18.7A440 440 0 0 1 141.6 40h-.6c-.6 3.1-.8 5.7-.8 8.1v56.2c0 4.3.1 7.5.6 9.5 0 3.8-1.3 5.6-3.9 5.6-2.5.1-3.7-2.3-3.7-7.2zM182.9 60.3v-3.9c0-12.7 5.7-27.1 17.3-43.1 3.4-3.7 7.3-5.6 11.5-5.6h2.2a76 76 0 0 1 21.6 5c1.5 1.2 2.2 2.3 2.2 3.4v1.1c-.3.8-1 1.1-2 1.1-.8 0-3-.9-6.7-2.8a46.1 46.1 0 0 0-13.4-2.2H214c-4.8 0-8.5 3.2-11.5 9.5a63.5 63.5 0 0 0-12.3 33.9v4.5c0 5.1 2 13.3 5.9 24.6a37 37 0 0 0 17.9 19.9c4.3 2.1 7.8 3.1 10.4 3.1h1.1c8 0 12-7.9 12-23.8l-.8-17.6-8.1.8c-4.1-.4-6.2-1.3-6.2-2.5v-1.4c0-2.8 5.2-4.2 15.7-4.2h1.7c9 0 13.4 1.5 13.4 4.5v.3c0 1.5-1 2.4-3.1 2.8l-5.6-.8-.3 2.8v18.7c0 14.7-4.5 23.4-13.4 26l-4.5.6c-6.4 0-14-2.8-22.9-8.4a62 62 0 0 1-15.1-20.2 73.8 73.8 0 0 1-5.4-26.1zM260.2 113.2v-.8c0-1.3 1.4-2.5 4.2-3.9l.3-1.1c0-15.1.7-30.1 2.2-44.8 0-2.7-.8-4.8-2.2-6.2 1.7-1.5 2.5-4.6 2.5-9v-9l.6-16.5v-.8c0-4.6-1.1-7-3.1-7-1.3-.7-2-1.5-2-2.5 0-1.7 2-2.8 5.9-3.4 0-.4.4-.6 1.1-.6l8.7 1.1 18.5-.8c8.7 0 13.2 1.4 13.2 4.2 0 1.4-1.3 2.2-3.9 2.5H305l-9-.6h-1.4l-21.3.8.6 12.3V50l.3 2 2.8-.3h4.5l25.2.8c2.8.6 4.2 1.7 4.2 3.6v.3c-1.1 1.5-2.9 2.2-5.3 2.2l-13.4-.8h-.6c-11.7.2-17.6.7-17.6 1.4a744 744 0 0 0-1.7 49.5h.3c0-.3 9.6-.6 28.8-1.1l4.5-.6a8 8 0 0 1 5.9 2.2c0 3-2.1 4.5-6.2 4.5h-3.4l-16.8.8h-7.8a11 11 0 0 0-7.8 3.6h-.8c-.6 0-2.4-1.1-5.6-3.4-2.2-.2-3.2-.8-3.2-1.5zM323.8 16.1l.3.8c.9 21.4 1.4 36.7 1.4 45.6l-.3 5.6a37.7 37.7 0 0 0 18.5-20.4 58 58 0 0 0 2.8-16c0-7.8-1.1-11.7-3.4-11.7a22.8 22.8 0 0 0-14-4.5l-5.3.6zm-7.6 84.2V89.7l1.4-43.9v-1.4c0-12.1-.4-22.2-1.1-30.5 0-2.8 1.1-4.2 3.4-4.2h7.6c9.2 0 16.7 2.4 22.7 7.3 3.1 3.6 4.8 8.4 4.8 14.5a50 50 0 0 1-11.5 31.9l-3.1 2.5c4.6 7.6 8.9 17.2 12.9 29.1l4.5 17.6c-.8 2.1-2.4 3.1-4.8 3.1s-3.6-1.1-3.6-3.4A151.8 151.8 0 0 0 334.3 72a39.7 39.7 0 0 0-9.5 4.2l-.6 10.4.3 27.7-3.1 1.1c-2.2 0-3.5-1.4-3.9-4.2-.9-3.3-1.3-6.9-1.3-10.9zM389.5 8l.8 19.6-.6 26.6h2.5l5.6.3 13.4-7.6c5.4-4.5 8.1-9.9 8.1-16.2 0-9.9-7.5-17.7-22.4-23.2h-3.4l-4 .5zm-1.1 91.7l.6 8.4 15.1-6.7c6-3.9 10.4-10 13.2-18.2l.3-3.1v-.3c0-9.2-6.4-15.1-19.3-17.9-2 0-4.9.4-8.7 1.1l.3 7.8-1.5 28.9zm-7.9 7v-4.2l.6-12v-9.2l.8-14.6V65l1.4-43.1c0-4.8-.7-10.2-2-16.5 0-2.2 3.1-3.7 9.5-4.5h3.9c5.7 0 13.6 4.1 23.5 12a27.6 27.6 0 0 1 8.1 19.6c0 9.4-4.9 16.8-14.6 22.4l-3.6 2.8v.3c5.3 2.7 9.7 5.9 13.2 9.8 2 3.5 3.1 7.2 3.1 11.2v2.5c0 8.3-4.8 16.5-14.3 24.6a148.2 148.2 0 0 1-20.7 8.7h-2c-1.8 0-4.1-2.2-6.7-6.7l-.2-1.4zM439.9 64.7a69 69 0 0 0 8.7 35.6c6 6.2 12.4 9.3 19 9.3h2c8.9 0 15.2-9.4 19-28.3 1.3-8.8 2-16.3 2-22.5 0-21.9-5.3-36-15.9-42.3a17.9 17.9 0 0 0-9.5-2.9c-11.2 0-19 11-23.5 32.9a89.8 89.8 0 0 0-1.7 17.6v.6h-.1zm-7.3.6v-7.2c0-14.3 3.5-28.5 10.6-42.5 5.9-6.7 11.5-10.2 16.8-10.2h2.5a26 26 0 0 1 16.8 5.2c4.8 1.3 8 3.4 9.5 6.4a80.6 80.6 0 0 1 9.5 39.4c0 11.9-2.2 25.6-6.4 41.1-5.1 12.7-12.9 19.1-23.5 19.1-10.1 0-19.2-4.9-27.4-14.8-5.6-8.5-8.4-20.7-8.4-36.5zM503.8 59.2v-12c.6-25 1.5-37.5 2.8-37.5l.3-.3h1.7c1.6 0 3 .7 4.2 2v.3l-1.1 52c0 26 3.7 41.4 11.2 46.2 1.8 1.1 3.6 1.7 5.3 1.7h1.1c6.9 0 12.5-4.8 16.8-14.3a107 107 0 0 0 2.5-26 873.2 873.2 0 0 0-3.4-57.4c0-2.8 1.3-4.2 3.9-4.2h.3c2.9 0 4.5 3.2 4.5 9.5 1.5 24.6 2.2 43.6 2.2 56.8v4.2c0 14.8-2.7 24.1-8.1 28-5.6 6.7-11.9 10.1-19 10.1-10.6 0-17.7-6.4-21.3-19.3a180 180 0 0 1-3.9-39.8zM561.5 62.8v-3.9c0-12.7 5.7-27.1 17.3-43.1 3.4-3.7 7.3-5.6 11.5-5.6h2.2c4.7 0 11.9 1.7 21.5 5 1.5 1.2 2.2 2.3 2.2 3.4v1.1c-.3.8-1 1.1-2 1.1-.8 0-3-.9-6.7-2.8a46.1 46.1 0 0 0-13.4-2.2h-1.7c-4.8 0-8.5 3.2-11.5 9.5a63.5 63.5 0 0 0-12.3 33.9v4.5c0 5.1 2 13.3 5.9 24.6a37 37 0 0 0 17.9 19.9c4.3 2.1 7.8 3.1 10.4 3.1h1.1c8 0 12-7.9 12-23.8l-.8-17.6-8.1.8c-4.1-.4-6.2-1.3-6.2-2.5v-1.4c0-2.8 5.2-4.2 15.7-4.2h1.7c9 0 13.4 1.5 13.4 4.5v.3c0 1.5-1 2.4-3.1 2.8l-5.6-.8-.3 2.8v18.7c0 14.7-4.5 23.4-13.4 26l-4.5.6c-6.4 0-14-2.8-22.9-8.4a62 62 0 0 1-15.1-20.2 77.5 77.5 0 0 1-5.2-26.1zM641.3 111.5v-.8c0-1.3 1.4-2.5 4.2-3.9l.3-1.1c0-15.1.7-30.1 2.2-44.8 0-2.7-.8-4.8-2.2-6.2 1.7-1.5 2.5-4.6 2.5-9v-9l.6-16.5v-.8c0-4.6-1.1-7-3.1-7-1.3-.7-2-1.5-2-2.5 0-1.7 2-2.8 5.9-3.4 0-.4.4-.6 1.1-.6l8.7 1.1 18.5-.8c8.7 0 13.1 1.4 13.1 4.2 0 1.4-1.3 2.2-3.9 2.5h-1.1l-8.9-.6h-1.4l-21.3.8.6 12.3v22.7l.3 2 2.8-.3h4.5l25.2.8c2.8.6 4.2 1.7 4.2 3.6v.3c-1.1 1.5-2.9 2.2-5.3 2.2l-13.4-.8h-.6c-11.8.2-17.6.7-17.6 1.4a744 744 0 0 0-1.7 49.5h.3c0-.3 9.6-.6 28.8-1.1l4.5-.6a8 8 0 0 1 5.9 2.2c0 3-2.1 4.5-6.2 4.5h-3.4l-16.8.8h-7.8a11 11 0 0 0-7.8 3.6h-1c-.6 0-2.4-1.1-5.6-3.4-2.1 0-3.1-.6-3.1-1.3zM707.4 17.8l.3.8c.9 21.4 1.4 36.7 1.4 45.6l-.3 5.6a37.7 37.7 0 0 0 18.5-20.4 58 58 0 0 0 2.8-16c0-7.8-1.1-11.7-3.4-11.7a22.8 22.8 0 0 0-14-4.5l-5.3.6zm-7.5 84.2V91.4l1.4-43.9V46c0-12.1-.4-22.2-1.1-30.5 0-2.8 1.1-4.2 3.4-4.2h7.6c9.2 0 16.7 2.4 22.7 7.3 3.1 3.6 4.8 8.4 4.8 14.5A50 50 0 0 1 727.2 65l-3.1 2.5c4.6 7.6 8.9 17.2 12.9 29.1l4.5 17.6c-.8 2.1-2.4 3.1-4.8 3.1-2.5 0-3.6-1.1-3.6-3.4A151.8 151.8 0 0 0 718 73.6a39.7 39.7 0 0 0-9.5 4.2l-.6 10.4.1 27.8-3.1 1.1c-2.2 0-3.5-1.4-3.9-4.2-.8-3.3-1.1-6.9-1.1-10.9z" clip-rule="evenodd"/><path fill="#08080A" d="M.6 163.8v-25.5h9.3c1.7 0 3 .2 4.1.6 1.1.4 1.9.9 2.5 1.6.6.7 1.1 1.4 1.3 2.3.2.9.4 1.8.4 2.7a6.3 6.3 0 0 1-3.1 5.7c-.9.5-2 .9-3.1 1.1-1.2.2-2.3.3-3.5.3H3v11.2H.6zm7.9-13.3l3-.2c.9-.1 1.7-.4 2.3-.8.6-.4 1.1-.9 1.5-1.6.3-.7.5-1.5.5-2.6 0-1.6-.5-2.8-1.6-3.6-1-.8-2.7-1.2-5-1.2H3v10.1h5.5v-.1zM25.9 152.3v11.6h-2.4v-25.4h10c2.8 0 5 .5 6.4 1.6 1.5 1.1 2.2 2.8 2.2 5.1 0 1.6-.3 2.9-1 3.8-.6.9-1.7 1.7-3.2 2.4.8.3 1.3.6 1.8 1.1l1 1.7a11.8 11.8 0 0 1 .5 4l.1 2.4.2 1.6.3.9.4.5v.2h-2.7c-.3-.4-.4-1-.5-1.8l-.2-2.4-.1-2.4-.2-1.9a3.4 3.4 0 0 0-1.8-2.5c-.4-.2-.9-.4-1.5-.4l-1.7-.1h-7.6zm7.5-2.1c.9 0 1.7-.1 2.5-.3.8-.2 1.4-.5 2-.9.6-.4 1-.9 1.3-1.6.3-.6.5-1.4.5-2.3 0-.9-.2-1.7-.5-2.3a4.3 4.3 0 0 0-3.4-2.2l-2.3-.2h-7.6v9.8h7.5zM47.3 151.1a15.9 15.9 0 0 1 3-9.5c1-1.2 2.2-2.2 3.7-2.9 1.5-.7 3.1-1.1 5.1-1.1 2 0 3.7.4 5.2 1a11.8 11.8 0 0 1 6 7.2 17.8 17.8 0 0 1 0 10.5 14 14 0 0 1-2.2 4.2c-1 1.2-2.2 2.2-3.7 2.9a12 12 0 0 1-5.2 1.1c-2 0-3.7-.4-5.2-1.1-1.5-.7-2.7-1.7-3.7-2.9a12 12 0 0 1-2.2-4.2c-.5-1.6-.8-3.3-.8-5.2zm11.9 11.4c1.7 0 3.1-.3 4.3-.9a7.9 7.9 0 0 0 2.9-2.5 10 10 0 0 0 1.7-3.6c.4-1.4.5-2.8.5-4.3 0-1.8-.2-3.4-.7-4.8-.4-1.4-1.1-2.6-1.9-3.6a8.6 8.6 0 0 0-7-3.1c-1.6 0-3 .3-4.2 1a7.9 7.9 0 0 0-2.9 2.5c-.8 1-1.3 2.3-1.7 3.6a20.2 20.2 0 0 0 0 8.6 10 10 0 0 0 1.7 3.6 8.8 8.8 0 0 0 7.3 3.5zM87.9 152.7v-2h10.9v13.2h-2.1v-4.3c-.4.8-1 1.4-1.5 2.1-.6.6-1.2 1.2-2 1.6-.8.4-1.6.8-2.6 1a13.3 13.3 0 0 1-7.9-.4 9.8 9.8 0 0 1-3.5-2.5c-1-1.1-1.8-2.5-2.3-4.2a18 18 0 0 1-.8-5.9c0-1.9.2-3.6.7-5.2a12 12 0 0 1 2.2-4.2c1-1.2 2.2-2.1 3.7-2.8a12 12 0 0 1 5.2-1c1.3 0 2.6.2 3.8.5 1.2.3 2.2.8 3.1 1.5.9.7 1.7 1.5 2.4 2.5.6 1 1.1 2.2 1.4 3.6H96a7 7 0 0 0-1.1-2.5 6.6 6.6 0 0 0-1.8-1.9 9 9 0 0 0-5.1-1.6c-1.7 0-3.1.3-4.3.9a8 8 0 0 0-3 2.5c-.8 1.1-1.3 2.4-1.7 3.9a19 19 0 0 0 .1 8.9 9.2 9.2 0 0 0 4.7 5.7 8 8 0 0 0 3.9.8l2.1-.2c.7-.2 1.4-.4 2.1-.8a8 8 0 0 0 3.4-3.5c.4-.8.7-1.6.8-2.5.2-.9.2-1.8.3-2.8h-8.5v-.4zM108.1 152.3v11.6h-2.4v-25.4h10c2.8 0 5 .5 6.4 1.6 1.5 1.1 2.2 2.8 2.2 5.1 0 1.6-.3 2.9-1 3.8-.6.9-1.7 1.7-3.2 2.4.8.3 1.3.6 1.8 1.1l1 1.7a11.8 11.8 0 0 1 .5 4l.1 2.4.2 1.6.3.9.4.5v.2h-2.7c-.3-.4-.4-1-.5-1.8l-.2-2.4-.1-2.4-.2-1.9a3.4 3.4 0 0 0-1.8-2.5c-.4-.2-.9-.4-1.5-.4l-1.7-.1h-7.6zm7.5-2.1c.9 0 1.7-.1 2.5-.3.8-.2 1.4-.5 2-.9.6-.4 1-.9 1.3-1.6.3-.6.5-1.4.5-2.3 0-.9-.2-1.7-.5-2.3a4.3 4.3 0 0 0-3.4-2.2l-2.3-.2h-7.6v9.8h7.5zM128.2 163.8l10-25.5h2.7l9.8 25.5h-2.5l-2.9-8h-11.6l-3 8h-2.5zm6.3-10h10l-5-13.4-5 13.4zM155.2 163.8v-25.5h3.7l8.3 22.5h.1l8.2-22.5h3.6v25.5h-2.4v-22.7h-.1l-8.3 22.7H166l-8.4-22.7h-.1v22.7h-2.3zM185.9 163.8v-25.5h3.7l8.3 22.5h.1l8.2-22.5h3.6v25.5h-2.4v-22.7h-.1l-8.3 22.7h-2.3l-8.4-22.7h-.1v22.7h-2.3zM216.6 163.8v-25.5h16.9v2.1H219v9.2h13.1v2H219v10.1h14.9v2h-17.3v.1zM252.9 141.6l-.1 22.2h-2.4v-25.5h2.7l14.7 22.2h.1v-22.2h2.4v25.5h-2.8l-14.6-22.2zM273.5 163.8l10-25.5h2.7l9.8 25.5h-2.5l-2.9-8H279l-3 8h-2.5zm6.3-10h10l-5-13.4-5 13.4zM293.6 138.4h18.5v2.1H304v23.4h-2.4v-23.4h-8.1v-2.1h.1zM316.2 163.8v-25.5h2.4v25.5h-2.4zM324 151.1a15.9 15.9 0 0 1 3-9.5c1-1.2 2.2-2.2 3.7-2.9 1.5-.7 3.1-1.1 5.1-1.1 2 0 3.7.4 5.2 1a11.8 11.8 0 0 1 6 7.2 17.8 17.8 0 0 1 0 10.5 14 14 0 0 1-2.2 4.2c-1 1.2-2.2 2.2-3.7 2.9a12 12 0 0 1-5.2 1.1c-2 0-3.7-.4-5.2-1.1-1.5-.7-2.7-1.7-3.7-2.9a12 12 0 0 1-2.2-4.2c-.6-1.6-.8-3.3-.8-5.2zm11.9 11.4c1.7 0 3.1-.3 4.3-.9a7.9 7.9 0 0 0 2.9-2.5 10 10 0 0 0 1.7-3.6c.4-1.4.5-2.8.5-4.3 0-1.8-.2-3.4-.7-4.8-.4-1.4-1.1-2.6-1.9-3.6a8.6 8.6 0 0 0-7-3.1c-1.6 0-3 .3-4.2 1a7.9 7.9 0 0 0-2.9 2.5c-.8 1-1.3 2.3-1.7 3.6a20.2 20.2 0 0 0 0 8.6 10 10 0 0 0 1.7 3.6 8.8 8.8 0 0 0 7.3 3.5zM354.7 141.6l-.1 22.2h-2.4v-25.5h2.7l14.7 22.2h.1v-22.2h2.4v25.5h-2.8l-14.6-22.2zM375.3 163.8l10-25.5h2.7l9.8 25.5h-2.5l-2.9-8h-11.6l-3 8h-2.5zm6.3-10h10l-5-13.4-5 13.4zM401 163.8v-25.5h2.4v23.4H417v2h-16v.1zM433.2 141.6l-.1 22.2h-2.4v-25.5h2.7l14.7 22.2h.1v-22.2h2.4v25.5h-2.8l-14.6-22.2zM456.8 138.4h2.4v15.2c0 3.2.6 5.4 1.8 6.8 1.2 1.4 3.1 2.1 5.7 2.1 1.4 0 2.5-.2 3.5-.5a5 5 0 0 0 2.3-1.7c.6-.7 1-1.7 1.3-2.8.3-1.1.4-2.4.4-3.9v-15.2h2.4v15.9c0 3.3-.8 5.9-2.5 7.6-1.6 1.8-4.1 2.6-7.4 2.6-3.3 0-5.8-.9-7.4-2.7a11 11 0 0 1-2.4-7.6v-15.8h-.1zM480.5 138.4H499v2.1h-8v23.4h-2.4v-23.4h-8.1v-2.1zM505.3 152.3v11.6h-2.4v-25.4h10c2.8 0 5 .5 6.4 1.6 1.5 1.1 2.2 2.8 2.2 5.1 0 1.6-.3 2.9-1 3.8-.6.9-1.7 1.7-3.2 2.4.8.3 1.3.6 1.8 1.1l1 1.7.4 2 .1 2 .1 2.4.2 1.6.3.9.4.5v.2h-2.7c-.3-.4-.4-1-.5-1.8l-.2-2.4-.1-2.4-.2-1.9a3.4 3.4 0 0 0-1.8-2.5c-.4-.2-.9-.4-1.5-.4l-1.7-.1h-7.6zm7.5-2.1c.9 0 1.7-.1 2.5-.3.8-.2 1.4-.5 2-.9.6-.4 1-.9 1.3-1.6.3-.6.5-1.4.5-2.3 0-.9-.2-1.7-.5-2.3a4.3 4.3 0 0 0-3.4-2.2l-2.3-.2h-7.6v9.8h7.5zM527.9 163.8v-25.5h2.4v25.5h-2.4zM535.1 138.4h18.5v2.1h-8.1v23.4h-2.4v-23.4H535v-2.1h.1zM558.4 163.8v-25.5h2.4v25.5h-2.4zM566.9 151.1a15.9 15.9 0 0 1 3-9.5c1-1.2 2.2-2.2 3.7-2.9 1.5-.7 3.1-1.1 5.1-1.1 2 0 3.7.4 5.2 1a11.8 11.8 0 0 1 6 7.2 17.8 17.8 0 0 1 0 10.5 14 14 0 0 1-2.2 4.2c-1 1.2-2.2 2.2-3.7 2.9a12 12 0 0 1-5.2 1.1c-2 0-3.7-.4-5.2-1.1-1.5-.7-2.7-1.7-3.7-2.9a12 12 0 0 1-2.2-4.2c-.6-1.6-.8-3.3-.8-5.2zm11.8 11.4c1.7 0 3.1-.3 4.3-.9a7.9 7.9 0 0 0 2.9-2.5 10 10 0 0 0 1.7-3.6c.4-1.4.5-2.8.5-4.3 0-1.8-.2-3.4-.7-4.8-.4-1.4-1.1-2.6-1.9-3.6a8.6 8.6 0 0 0-7-3.1c-1.6 0-3 .3-4.2 1a7.9 7.9 0 0 0-2.9 2.5c-.8 1-1.3 2.3-1.7 3.6a20.2 20.2 0 0 0 0 8.6 10 10 0 0 0 1.7 3.6c.8 1 1.7 1.9 2.9 2.5 1.3.7 2.8 1 4.4 1zM598.3 141.6l-.1 22.2h-2.4v-25.5h2.7l14.7 22.2h.1v-22.2h2.4v25.5h-2.8l-14.6-22.2zM633.2 156.2a6.6 6.6 0 0 0 2.4 4.8c.6.5 1.4.9 2.2 1.1a11.8 11.8 0 0 0 5.6-.1c.8-.3 1.5-.7 2-1.1.5-.5.9-1 1.1-1.7.2-.6.4-1.3.4-2 0-1-.2-1.8-.7-2.4a5 5 0 0 0-1.7-1.5c-.7-.4-1.5-.7-2.5-.9l-2.9-.7-2.9-.8c-.9-.3-1.8-.7-2.5-1.2a5.5 5.5 0 0 1-1.7-2 6.8 6.8 0 0 1-.2-5.6 7 7 0 0 1 1.6-2.2c.7-.6 1.6-1.1 2.7-1.5 1.1-.4 2.3-.6 3.7-.6 1.4 0 2.7.2 3.8.6 1.1.4 2 .9 2.7 1.6a7.1 7.1 0 0 1 2.1 5.3h-2.3c0-1-.2-1.8-.5-2.5a4 4 0 0 0-1.4-1.7c-.6-.4-1.3-.8-2-1a9 9 0 0 0-5.4.2c-.8.3-1.5.8-2 1.3a4.5 4.5 0 0 0-1.1 3.8c.1.8.5 1.5 1 2s1.2.9 1.9 1.2l2.5.8 2.8.6 2.7.8a9 9 0 0 1 2.4 1.2c.7.5 1.2 1.2 1.6 2 .4.8.6 1.8.6 3.1 0 2.4-.8 4.2-2.4 5.5-1.6 1.3-3.9 1.9-6.9 1.9a15 15 0 0 1-3.7-.5 7.5 7.5 0 0 1-4.8-4.2 8 8 0 0 1-.7-3.6h2.5zM652 163.8l10-25.5h2.7l9.8 25.5H672l-2.9-8h-11.6l-3 8H652zm6.3-10h10l-5-13.4-5 13.4zM680.8 141.6l-.1 22.2h-2.4v-25.5h2.7l14.7 22.2h.1v-22.2h2.4v25.5h-2.8l-14.6-22.2zM702.1 138.4h18.5v2.1h-8.1v23.4h-2.4v-23.4H702v-2.1h.1zM724.6 163.8v-25.5h16.9v2.1H727v9.2h13.1v2H727v10.1h14.9v2h-17.3v.1zm5.9-27.4l3.9-4.9h2.7l-4.8 4.9h-1.8z"/></svg>
